<svg xmlns="http://www.w3.org/2000/svg" width="900" height="560" viewBox="0 0 900 560" preserveAspectRatio="xMidYMid slice" role="img" aria-label="Sunset over the Dublin quays, with a harp-shaped bridge and a domed customs house reflected in the river" xmlns:c2pa="http://c2pa.org/manifest"><metadata><c2pa:manifest>AAAWgmp1bWIAAAAeanVtZGMycGEAEQAQgAAAqgA4m3EDYzJwYQAAABZcanVtYgAAAEdqdW1kYzJtYQARABCAAACqADibcQN1cm46YzJwYTozMjA1YmE1Ni1hN2MwLTQ4ZGEtYTlmMy02YTdjOGMzMmMwNWUAAAADl2p1bWIAAAApanVtZGMyYXMAEQAQgAAAqgA4m3EDYzJwYS5hc3NlcnRpb25zAAAAALxqdW1iAAAARGp1bWRjYm9yABEAEIAAAKoAOJtxE2MycGEuaW5ncmVkaWVudC52MwAAAAAYYzJzaPvB8cGotAtIUBgRx4G2FTMAAABwY2JvcqNpZGM6Zm9ybWF0bWltYWdlL3N2Zyt4bWxqaW5zdGFuY2VJRHgseG1wOmlpZDphMGI1NTQ5MS1jMjFmLTRlMWYtODQwYy00MzIzNTc3MzAxN2RscmVsYXRpb25zaGlwaHBhcmVudE9mAAAB4mp1bWIAAABBanVtZGNib3IAEQAQgAAAqgA4m3ETYzJwYS5hY3Rpb25zLnYyAAAAABhjMnNoXnxsedBlWe+ec4uXXUMUwQAAAZljYm9yomdhY3Rpb25zgqJmYWN0aW9ua2MycGEub3BlbmVkanBhcmFtZXRlcnOha2luZ3JlZGllbnRzgaJjdXJseC1zZWxmI2p1bWJmPWMycGEuYXNzZXJ0aW9ucy9jMnBhLmluZ3JlZGllbnQudjNkaGFzaFggiHkW/4cLtjVdpg05R61T3zuwUY8hkFM181dALYfoIeCkZmFjdGlvbngdY29tLmFudGhyb3BpYy5jbGF1ZGUucHJvdmlkZWRqcGFyYW1ldGVyc6F4H2NvbS5hbnRocm9waWMub3JpZ2luLWNvbmZpZGVuY2VndW5rbm93bmtkZXNjcmlwdGlvbnhmQ2xhdWRlIHByb3ZpZGVkIHRoaXMgZmlsZSBhdCB0aGUgcmVxdWVzdCBvZiBhIHVzZXIgYW5kIG1heSBoYXZlIGNyZWF0ZWQgb3IgbW9kaWZpZWQgdGhlIGZpbGUgY29udGVudHMubXNvZnR3YXJlQWdlbnShZG5hbWVmQ2xhdWRlcmFsbEFjdGlvbnNJbmNsdWRlZPUAAADIanVtYgAAAEBqdW1kY2JvcgARABCAAACqADibcRNjMnBhLmhhc2guZGF0YQAAAAAYYzJzaLST9qOkqQQHMIv5F2VP+IwAAACAY2JvcqVjYWxnZnNoYTI1NmNwYWRMAAAAAAAAAAAAAAAAZGhhc2hYIDLLsooOEQryuEZ4tXUXczGpylAzwYWnDXJWznPybMYNZG5hbWVuanVtYmYgbWFuaWZlc3RqZXhjbHVzaW9uc4GiZXN0YXJ0GQE8Zmxlbmd0aBkeBAAAAj5qdW1iAAAAJ2p1bWRjMmNsABEAEIAAAKoAOJtxA2MycGEuY2xhaW0udjIAAAACD2Nib3KlY2FsZ2ZzaGEyNTZpc2lnbmF0dXJleE1zZWxmI2p1bWJmPS9jMnBhL3VybjpjMnBhOjMyMDViYTU2LWE3YzAtNDhkYS1hOWYzLTZhN2M4YzMyYzA1ZS9jMnBhLnNpZ25hdHVyZWppbnN0YW5jZUlEeCx4bXA6aWlkOjg0MDY3ZmRmLTg5YjItNGY2Ny1hMWE2LTc2MTE0YjMxOWJlZnJjcmVhdGVkX2Fzc2VydGlvbnODomN1cmx4LXNlbGYjanVtYmY9YzJwYS5hc3NlcnRpb25zL2MycGEuaW5ncmVkaWVudC52M2RoYXNoWCCIeRb/hwu2NV2mDTlHrVPfO7BRjyGQUzXzV0Ath+gh4KJjdXJseCpzZWxmI2p1bWJmPWMycGEuYXNzZXJ0aW9ucy9jMnBhLmFjdGlvbnMudjJkaGFzaFggj3ecJJuisBDLkM+oNrxW9vYQUPAU+y9iiTzysTYzTdKiY3VybHgpc2VsZiNqdW1iZj1jMnBhLmFzc2VydGlvbnMvYzJwYS5oYXNoLmRhdGFkaGFzaFgg/T1EmH4CBO2cNOa3pvoYuZKDVmVKhsZQmVpKHsLikiB0Y2xhaW1fZ2VuZXJhdG9yX2luZm+jZG5hbWVvQW50aHJvcGljIEZpbGVzZ3ZlcnNpb25lMS4wLjBrc3BlY1ZlcnNpb25lMi40LjAAABA4anVtYgAAAChqdW1kYzJjcwARABCAAACqADibcQNjMnBhLnNpZ25hdHVyZQAAABAIY2JvctKEWQISogEmGCFZAgowggIGMIIBjaADAgECAhRA5aAK7sI50L64g/oGQgU9Z1UTADAKBggqhkjOPQQDAzBJMRcwFQYDVQQKEw5BbnRocm9waWMsIFBCQzEuMCwGA1UEAxMlQW50aHJvcGljIENvbnRlbnQgQ3JlZGVudGlhbHMgUm9vdCBDQTAeFw0yNjA4MDcxODQzNTZaFw0yODA4MDYxOTQzNTZaMEQxFzAVBgNVBAoTDkFudGhyb3BpYywgUEJDMSkwJwYDVQQDEyBBbnRocm9waWMgQ2xhdWRlIENvbnRlbnQgU2lnbmluZzBZMBMGByqGSM49AgEGCCqGSM49AwEHA0IABJh6CmvLUBgFFNU0vUKlOVtE6djd17L5SuwX0LemFisBM3dkd/3cyjxFA3Qo5S46fX0/ihY0VZ7mfb9KF703t5OjWDBWMA4GA1UdDwEB/wQEAwIHgDAVBgNVHSUEDjAMBgorBgEEAYPoXgIBMAwGA1UdEwEB/wQCMAAwHwYDVR0jBBgwFoAUzlHiBIFOZFsj+OPEz5o+nMHXXMIwCgYIKoZIzj0EAwMDZwAwZAIwMXMdFJ4BetLLVY7ORuE9noqbbAZOZn/aArXyTwFAZfKrPzxF2vPoJNf1+UCdg1XGAjBwX1zd9WGqYkqmL5SFqw1QySjr1zJfpJM9+1rdDwSPLMOPOjKuiXjoU/pUUeG9RwmhY3BhZFkNngAAAAAAAAAAAAAAAAAAAAAAAAAAAAAAAAAAAAAAAAAAAAAAAAAAAAAAAAAAAAAAAAAAAAAAAAAAAAAAAAAAAAAAAAAAAAAAAAAAAAAAAAAAAAAAAAAAAAAAAAAAAAAAAAAAAAAAAAAAAAAAAAAAAAAAAAAAAAAAAAAAAAAAAAAAAAAAAAAAAAAAAAAAAAAAAAAAAAAAAAAAAAAAAAAAAAAAAAAAAAAAAAAAAAAAAAAAAAAAAAAAAAAAAAAAAAAAAAAAAAAAAAAAAAAAAAAAAAAAAAAAAAAAAAAAAAAAAAAAAAAAAAAAAAAAAAAAAAAAAAAAAAAAAAAAAAAAAAAAAAAAAAAAAAAAAAAAAAAAAAAAAAAAAAAAAAAAAAAAAAAAAAAAAAAAAAAAAAAAAAAAAAAAAAAAAAAAAAAAAAAAAAAAAAAAAAAAAAAAAAAAAAAAAAAAAAAAAAAAAAAAAAAAAAAAAAAAAAAAAAAAAAAAAAAAAAAAAAAAAAAAAAAAAAAAAAAAAAAAAAAAAAAAAAAAAAAAAAAAAAAAAAAAAAAAAAAAAAAAAAAAAAAAAAAAAAAAAAAAAAAAAAAAAAAAAAAAAAAAAAAAAAAAAAAAAAAAAAAAAAAAAAAAAAAAAAAAAAAAAAAAAAAAAAAAAAAAAAAAAAAAAAAAAAAAAAAAAAAAAAAAAAAAAAAAAAAAAAAAAAAAAAAAAAAAAAAAAAAAAAAAAAAAAAAAAAAAAAAAAAAAAAAAAAAAAAAAAAAAAAAAAAAAAAAAAAAAAAAAAAAAAAAAAAAAAAAAAAAAAAAAAAAAAAAAAAAAAAAAAAAAAAAAAAAAAAAAAAAAAAAAAAAAAAAAAAAAAAAAAAAAAAAAAAAAAAAAAAAAAAAAAAAAAAAAAAAAAAAAAAAAAAAAAAAAAAAAAAAAAAAAAAAAAAAAAAAAAAAAAAAAAAAAAAAAAAAAAAAAAAAAAAAAAAAAAAAAAAAAAAAAAAAAAAAAAAAAAAAAAAAAAAAAAAAAAAAAAAAAAAAAAAAAAAAAAAAAAAAAAAAAAAAAAAAAAAAAAAAAAAAAAAAAAAAAAAAAAAAAAAAAAAAAAAAAAAAAAAAAAAAAAAAAAAAAAAAAAAAAAAAAAAAAAAAAAAAAAAAAAAAAAAAAAAAAAAAAAAAAAAAAAAAAAAAAAAAAAAAAAAAAAAAAAAAAAAAAAAAAAAAAAAAAAAAAAAAAAAAAAAAAAAAAAAAAAAAAAAAAAAAAAAAAAAAAAAAAAAAAAAAAAAAAAAAAAAAAAAAAAAAAAAAAAAAAAAAAAAAAAAAAAAAAAAAAAAAAAAAAAAAAAAAAAAAAAAAAAAAAAAAAAAAAAAAAAAAAAAAAAAAAAAAAAAAAAAAAAAAAAAAAAAAAAAAAAAAAAAAAAAAAAAAAAAAAAAAAAAAAAAAAAAAAAAAAAAAAAAAAAAAAAAAAAAAAAAAAAAAAAAAAAAAAAAAAAAAAAAAAAAAAAAAAAAAAAAAAAAAAAAAAAAAAAAAAAAAAAAAAAAAAAAAAAAAAAAAAAAAAAAAAAAAAAAAAAAAAAAAAAAAAAAAAAAAAAAAAAAAAAAAAAAAAAAAAAAAAAAAAAAAAAAAAAAAAAAAAAAAAAAAAAAAAAAAAAAAAAAAAAAAAAAAAAAAAAAAAAAAAAAAAAAAAAAAAAAAAAAAAAAAAAAAAAAAAAAAAAAAAAAAAAAAAAAAAAAAAAAAAAAAAAAAAAAAAAAAAAAAAAAAAAAAAAAAAAAAAAAAAAAAAAAAAAAAAAAAAAAAAAAAAAAAAAAAAAAAAAAAAAAAAAAAAAAAAAAAAAAAAAAAAAAAAAAAAAAAAAAAAAAAAAAAAAAAAAAAAAAAAAAAAAAAAAAAAAAAAAAAAAAAAAAAAAAAAAAAAAAAAAAAAAAAAAAAAAAAAAAAAAAAAAAAAAAAAAAAAAAAAAAAAAAAAAAAAAAAAAAAAAAAAAAAAAAAAAAAAAAAAAAAAAAAAAAAAAAAAAAAAAAAAAAAAAAAAAAAAAAAAAAAAAAAAAAAAAAAAAAAAAAAAAAAAAAAAAAAAAAAAAAAAAAAAAAAAAAAAAAAAAAAAAAAAAAAAAAAAAAAAAAAAAAAAAAAAAAAAAAAAAAAAAAAAAAAAAAAAAAAAAAAAAAAAAAAAAAAAAAAAAAAAAAAAAAAAAAAAAAAAAAAAAAAAAAAAAAAAAAAAAAAAAAAAAAAAAAAAAAAAAAAAAAAAAAAAAAAAAAAAAAAAAAAAAAAAAAAAAAAAAAAAAAAAAAAAAAAAAAAAAAAAAAAAAAAAAAAAAAAAAAAAAAAAAAAAAAAAAAAAAAAAAAAAAAAAAAAAAAAAAAAAAAAAAAAAAAAAAAAAAAAAAAAAAAAAAAAAAAAAAAAAAAAAAAAAAAAAAAAAAAAAAAAAAAAAAAAAAAAAAAAAAAAAAAAAAAAAAAAAAAAAAAAAAAAAAAAAAAAAAAAAAAAAAAAAAAAAAAAAAAAAAAAAAAAAAAAAAAAAAAAAAAAAAAAAAAAAAAAAAAAAAAAAAAAAAAAAAAAAAAAAAAAAAAAAAAAAAAAAAAAAAAAAAAAAAAAAAAAAAAAAAAAAAAAAAAAAAAAAAAAAAAAAAAAAAAAAAAAAAAAAAAAAAAAAAAAAAAAAAAAAAAAAAAAAAAAAAAAAAAAAAAAAAAAAAAAAAAAAAAAAAAAAAAAAAAAAAAAAAAAAAAAAAAAAAAAAAAAAAAAAAAAAAAAAAAAAAAAAAAAAAAAAAAAAAAAAAAAAAAAAAAAAAAAAAAAAAAAAAAAAAAAAAAAAAAAAAAAAAAAAAAAAAAAAAAAAAAAAAAAAAAAAAAAAAAAAAAAAAAAAAAAAAAAAAAAAAAAAAAAAAAAAAAAAAAAAAAAAAAAAAAAAAAAAAAAAAAAAAAAAAAAAAAAAAAAAAAAAAAAAAAAAAAAAAAAAAAAAAAAAAAAAAAAAAAAAAAAAAAAAAAAAAAAAAAAAAAAAAAAAAAAAAAAAAAAAAAAAAAAAAAAAAAAAAAAAAAAAAAAAAAAAAAAAAAAAAAAAAAAAAAAAAAAAAAAAAAAAAAAAAAAAAAAAAAAAAAAAAAAAAAAAAAAAAAAAAAAAAAAAAAAAAAAAAAAAAAAAAAAAAAAAAAAAAAAAAAAAAAAAAAAAAAAAAAAAAAAAAAAAAAAAAAAAAAAAAAAAAAAAAAAAAAAAAAAAAAAAAAAAAAAAAAAAAAAAAAAAAAAAAAAAAAAAAAAAAAAAAAAAAAAAAAAAAAAAAAAAAAAAAAAAAAAAAAAAAAAAAAAAAAAAAAAAAAAAAAAAAAAAAAAAAAAAAAAAAAAAAAAAAAAAAAAAAAAAAAAAAAAAAAAAAAAAAAAAAAAAAAAAAAAAAAAAAAAAAAAAAAAAAAAAAAAAAAAAAAAAAAAAAAAAAAAAAAAAAAAAAAAAAAAAAAAAAAAAAAAAAAAAAAAAAAAAAAAAAAAAAAAAAAAAAAAAAAAAAAAAAAAAAAAAAAAAAAAAAAAAAAAAAAAAAAAAAAAAAAAAAAAAAAAAAAAAAAAAAAAAAAAAAAAAAAAAAAAAAAAAAAAAAAAAAAAAAAAAAAAAAAAAAAAAAAAAAAAAAAAAAAAAAAAAAAAAAAAAAAAAAAAAAAAAAAAAAAAAAAAAAAAAAAAAAAAAAAAAAAAAAAAAAAAAAAAAAAAAAAAAAAAAAAAAAAAAAAAAAAAAAAAAAAAAAAAAAAAAAAAAAAAAAAAAAAAAAAAAAAAAAAAAAAAAAAAAAAAAAAAAAAAAAAAAAAAAAAAAAAAAAAAAAAAAAAAAAAAAAAAAAAAAAAAAAAAAAAAAAAAAAAAAAAAAAAAAAAAAAAAAAAAAAAAAAAAAAAAAAAAAAAAAAAAAAAAAAAAAAAAAAAAAAAAAAAAAAAAAAAAAAAAAAAAAAAAAAAAAAAAAAAAAAAAAAAAAAAAAAAAAAAAAAAAAAAAAAAAAAAAAAAAAAAAAAAAAAAAAAAAAAAAAAAAAAAAAAAAAAAAAAAAAAAAAAAAAAAAAAAAAAAAAAAAAAAAAAAAAAAAAAAAAAAAAAAAAAAAAAAAAAAAAAAAAAAAAAAAAAAAAAAAAAAAAAAAAAAAAAAAAAAAAAAAAAAAAAAAAAAAAAAAAAAAAAAAAAAAAAAAAAAAAAAAAAAAAAAAAAAAAAAAAAAAAAAAAAAAAAAAAAAAAAAAAAAAAAAAAAAAAAAAAAAAAAAAAAAAAAAAAAAAAAAAAAAAAAAAAAAAAAAAAAAAAAAAAAAAAAAAAAAAAAAAAAAAAAAAAAAAAAAAAAAAAAAAAAAAAAAAAAAAAAAAAAAAAAAAAAAAAAAAAAAAAAAAAAAAAAAAAAAAAAAAAAAAAAAAAAAAAAAAAAAAAAAAAAAAAAAAAAAAAAAAAAAAAAAAAAAAAAAAAAAAAAAAAAAAAAAAAAAAAAAAAAAAAAAAAAAAAAAAAAAAAAAAAAAAAAAAAAAAAAAAAAAAAAAAAAAAAAAAAAAAAAAAAAAAAAAAAAAAAAAAAAAAAAAAAAAAAAAAAAAAAAAAAAAAAAAAAAAAAAAAAAAAAAAAAAAAAAAAAAAAAAAAAAAAAAAAAAAAAAAAAAAAAAAAAAAAAAAAAAAAAAAAAAAAAAAAAAAAAAAAAAAAAAAAAAAAAAAAAAAAAAPZYQGEyszopeejqszUAf5DDWjnYivkFcCxnEaita9or6DjttaEGLoiwEFogDThBw7SOSLhpiahp/NkGZoY605AQFsk=</c2pa:manifest></metadata><defs>
<linearGradient id="ssky" x1="0" y1="0" x2="0" y2="1"><stop offset="0" stop-color="#0A3B34"></stop><stop offset="0.32" stop-color="#1D5A55"></stop><stop offset="0.56" stop-color="#6E6A5E"></stop><stop offset="0.68" stop-color="#C98556"></stop><stop offset="0.74" stop-color="#F3B77E"></stop></linearGradient>
<radialGradient id="ssun" cx="0.62" cy="0.7" r="0.42"><stop offset="0" stop-color="#FFE3B0" stop-opacity="0.95"></stop><stop offset="0.25" stop-color="#FBC98A" stop-opacity="0.55"></stop><stop offset="1" stop-color="#F3B77E" stop-opacity="0"></stop></radialGradient>
<linearGradient id="swater" x1="0" y1="0" x2="0" y2="1"><stop offset="0" stop-color="#7A6A5A"></stop><stop offset="0.25" stop-color="#34615B"></stop><stop offset="1" stop-color="#0A3B34"></stop></linearGradient>
<linearGradient id="sglint" x1="0" y1="0" x2="0" y2="1"><stop offset="0" stop-color="#FFD9A0" stop-opacity="0.9"></stop><stop offset="1" stop-color="#FFD9A0" stop-opacity="0"></stop></linearGradient>
</defs><rect width="900" height="560" fill="url(#ssky)"></rect><rect width="900" height="560" fill="url(#ssun)"></rect><ellipse cx="180" cy="250" rx="170" ry="10" fill="#FCD9B5" fill-opacity="0.22"></ellipse><ellipse cx="420" cy="225" rx="210" ry="8" fill="#FCD9B5" fill-opacity="0.18"></ellipse><ellipse cx="720" cy="270" rx="190" ry="9" fill="#FCD9B5" fill-opacity="0.25"></ellipse><ellipse cx="560" cy="300" rx="150" ry="6" fill="#FCD9B5" fill-opacity="0.3"></ellipse><ellipse cx="90" cy="300" rx="120" ry="5" fill="#FCD9B5" fill-opacity="0.2"></ellipse><ellipse cx="820" cy="205" rx="110" ry="6" fill="#FCD9B5" fill-opacity="0.15"></ellipse><circle cx="341" cy="48" r="1" fill="#E6F6EF" fill-opacity="0.7"></circle><circle cx="59" cy="28" r="1.3" fill="#E6F6EF" fill-opacity="0.35"></circle><circle cx="384" cy="24" r="1.3" fill="#E6F6EF" fill-opacity="0.35"></circle><circle cx="48" cy="32" r="1" fill="#E6F6EF" fill-opacity="0.5"></circle><circle cx="81" cy="71" r="0.8" fill="#E6F6EF" fill-opacity="0.7"></circle><circle cx="444" cy="25" r="1.3" fill="#E6F6EF" fill-opacity="0.35"></circle><circle cx="238" cy="25" r="1.3" fill="#E6F6EF" fill-opacity="0.7"></circle><circle cx="416" cy="22" r="0.8" fill="#E6F6EF" fill-opacity="0.35"></circle><circle cx="580" cy="44" r="1" fill="#E6F6EF" fill-opacity="0.5"></circle><circle cx="157" cy="148" r="0.8" fill="#E6F6EF" fill-opacity="0.7"></circle><circle cx="325" cy="56" r="0.8" fill="#E6F6EF" fill-opacity="0.7"></circle><circle cx="594" cy="58" r="1" fill="#E6F6EF" fill-opacity="0.35"></circle><circle cx="570" cy="26" r="1.3" fill="#E6F6EF" fill-opacity="0.35"></circle><circle cx="643" cy="62" r="1" fill="#E6F6EF" fill-opacity="0.7"></circle><circle cx="554" cy="119" r="1" fill="#E6F6EF" fill-opacity="0.5"></circle><circle cx="609" cy="126" r="1" fill="#E6F6EF" fill-opacity="0.5"></circle><circle cx="264" cy="56" r="1.3" fill="#E6F6EF" fill-opacity="0.35"></circle><circle cx="93" cy="86" r="1.3" fill="#E6F6EF" fill-opacity="0.5"></circle><circle cx="361" cy="124" r="1" fill="#E6F6EF" fill-opacity="0.7"></circle><circle cx="84" cy="40" r="1.3" fill="#E6F6EF" fill-opacity="0.5"></circle><circle cx="178" cy="97" r="0.8" fill="#E6F6EF" fill-opacity="0.5"></circle><circle cx="441" cy="20" r="1.3" fill="#E6F6EF" fill-opacity="0.35"></circle><circle cx="792" cy="90" r="1" fill="#E6F6EF" fill-opacity="0.7"></circle><circle cx="368" cy="137" r="1.3" fill="#E6F6EF" fill-opacity="0.5"></circle><circle cx="80" cy="33" r="1" fill="#E6F6EF" fill-opacity="0.5"></circle><circle cx="723" cy="26" r="0.8" fill="#E6F6EF" fill-opacity="0.7"></circle><rect x="0" y="311" width="45" height="87" fill="#1E4944" fill-opacity="0.55"></rect><rect x="45" y="324" width="50" height="74" fill="#1E4944" fill-opacity="0.55"></rect><rect x="91" y="323" width="55" height="75" fill="#1E4944" fill-opacity="0.55"></rect><rect x="144" y="305" width="33" height="93" fill="#1E4944" fill-opacity="0.55"></rect><rect x="173" y="332" width="39" height="66" fill="#1E4944" fill-opacity="0.55"></rect><rect x="210" y="318" width="41" height="80" fill="#1E4944" fill-opacity="0.55"></rect><rect x="253" y="358" width="57" height="40" fill="#1E4944" fill-opacity="0.55"></rect><rect x="308" y="317" width="54" height="81" fill="#1E4944" fill-opacity="0.55"></rect><rect x="366" y="351" width="43" height="47" fill="#1E4944" fill-opacity="0.55"></rect><rect x="411" y="315" width="43" height="83" fill="#1E4944" fill-opacity="0.55"></rect><rect x="455" y="339" width="50" height="59" fill="#1E4944" fill-opacity="0.55"></rect><rect x="503" y="346" width="31" height="52" fill="#1E4944" fill-opacity="0.55"></rect><rect x="532" y="339" width="40" height="59" fill="#1E4944" fill-opacity="0.55"></rect><rect x="568" y="345" width="57" height="53" fill="#1E4944" fill-opacity="0.55"></rect><rect x="625" y="368" width="44" height="30" fill="#1E4944" fill-opacity="0.55"></rect><rect x="667" y="321" width="52" height="77" fill="#1E4944" fill-opacity="0.55"></rect><rect x="724" y="352" width="46" height="46" fill="#1E4944" fill-opacity="0.55"></rect><rect x="774" y="310" width="29" height="88" fill="#1E4944" fill-opacity="0.55"></rect><rect x="809" y="318" width="51" height="80" fill="#1E4944" fill-opacity="0.55"></rect><rect x="862" y="355" width="51" height="43" fill="#1E4944" fill-opacity="0.55"></rect><path d="M110 398 V 250 M 80 262 H 190 M110 250 L 150 262" stroke="#1E4944" stroke-width="3" fill="none" stroke-opacity="0.7"></path><rect x="20" y="318" width="54" height="80" fill="#123E39"></rect><rect x="34" y="326" width="4" height="5" fill="#FFCF8A" fill-opacity="0.55"></rect><rect x="61" y="326" width="4" height="5" fill="#FFCF8A" fill-opacity="0.95"></rect><rect x="25" y="337" width="4" height="5" fill="#FFCF8A" fill-opacity="0.55"></rect><rect x="25" y="348" width="4" height="5" fill="#FFCF8A" fill-opacity="0.55"></rect><rect x="43" y="348" width="4" height="5" fill="#FFCF8A" fill-opacity="0.75"></rect><rect x="34" y="359" width="4" height="5" fill="#FFCF8A" fill-opacity="0.75"></rect><rect x="25" y="370" width="4" height="5" fill="#FFCF8A" fill-opacity="0.55"></rect><rect x="34" y="381" width="4" height="5" fill="#FFCF8A" fill-opacity="0.95"></rect><rect x="78" y="300" width="40" height="98" fill="#123E39"></rect><rect x="92" y="308" width="4" height="5" fill="#FFCF8A" fill-opacity="0.95"></rect><rect x="83" y="319" width="4" height="5" fill="#FFCF8A" fill-opacity="0.75"></rect><rect x="110" y="319" width="4" height="5" fill="#FFCF8A" fill-opacity="0.95"></rect><rect x="92" y="330" width="4" height="5" fill="#FFCF8A" fill-opacity="0.55"></rect><rect x="92" y="341" width="4" height="5" fill="#FFCF8A" fill-opacity="0.55"></rect><rect x="83" y="352" width="4" height="5" fill="#FFCF8A" fill-opacity="0.95"></rect><rect x="101" y="363" width="4" height="5" fill="#FFCF8A" fill-opacity="0.95"></rect><rect x="92" y="385" width="4" height="5" fill="#FFCF8A" fill-opacity="0.55"></rect><rect x="110" y="385" width="4" height="5" fill="#FFCF8A" fill-opacity="0.75"></rect><rect x="122" y="332" width="60" height="66" fill="#123E39"></rect><rect x="127" y="351" width="4" height="5" fill="#FFCF8A" fill-opacity="0.95"></rect><rect x="136" y="351" width="4" height="5" fill="#FFCF8A" fill-opacity="0.75"></rect><rect x="172" y="351" width="4" height="5" fill="#FFCF8A" fill-opacity="0.95"></rect><rect x="127" y="362" width="4" height="5" fill="#FFCF8A" fill-opacity="0.95"></rect><rect x="172" y="362" width="4" height="5" fill="#FFCF8A" fill-opacity="0.55"></rect><rect x="127" y="373" width="4" height="5" fill="#FFCF8A" fill-opacity="0.95"></rect><rect x="154" y="373" width="4" height="5" fill="#FFCF8A" fill-opacity="0.95"></rect><rect x="145" y="384" width="4" height="5" fill="#FFCF8A" fill-opacity="0.55"></rect><rect x="172" y="384" width="4" height="5" fill="#FFCF8A" fill-opacity="0.95"></rect><rect x="184" y="312" width="44" height="86" fill="#123E39"></rect><rect x="189" y="331" width="4" height="5" fill="#FFCF8A" fill-opacity="0.75"></rect><rect x="198" y="331" width="4" height="5" fill="#FFCF8A" fill-opacity="0.95"></rect><rect x="207" y="331" width="4" height="5" fill="#FFCF8A" fill-opacity="0.95"></rect><rect x="216" y="331" width="4" height="5" fill="#FFCF8A" fill-opacity="0.95"></rect><rect x="198" y="342" width="4" height="5" fill="#FFCF8A" fill-opacity="0.95"></rect><rect x="216" y="364" width="4" height="5" fill="#FFCF8A" fill-opacity="0.75"></rect><rect x="216" y="375" width="4" height="5" fill="#FFCF8A" fill-opacity="0.55"></rect><rect x="216" y="386" width="4" height="5" fill="#FFCF8A" fill-opacity="0.95"></rect><rect x="470" y="320" width="50" height="78" fill="#123E39"></rect><rect x="511" y="328" width="4" height="5" fill="#FFCF8A" fill-opacity="0.55"></rect><rect x="475" y="339" width="4" height="5" fill="#FFCF8A" fill-opacity="0.55"></rect><rect x="493" y="372" width="4" height="5" fill="#FFCF8A" fill-opacity="0.95"></rect><rect x="511" y="372" width="4" height="5" fill="#FFCF8A" fill-opacity="0.75"></rect><rect x="475" y="383" width="4" height="5" fill="#FFCF8A" fill-opacity="0.55"></rect><rect x="493" y="383" width="4" height="5" fill="#FFCF8A" fill-opacity="0.95"></rect><rect x="502" y="383" width="4" height="5" fill="#FFCF8A" fill-opacity="0.55"></rect><rect x="511" y="383" width="4" height="5" fill="#FFCF8A" fill-opacity="0.75"></rect><rect x="520" y="336" width="34" height="62" fill="#123E39"></rect><rect x="543" y="344" width="4" height="5" fill="#FFCF8A" fill-opacity="0.95"></rect><rect x="543" y="355" width="4" height="5" fill="#FFCF8A" fill-opacity="0.55"></rect><rect x="534" y="366" width="4" height="5" fill="#FFCF8A" fill-opacity="0.55"></rect><rect x="525" y="388" width="4" height="5" fill="#FFCF8A" fill-opacity="0.75"></rect><rect x="790" y="266" width="110" height="132" fill="#153F46"></rect><rect x="795" y="274" width="4" height="5" fill="#FFCF8A" fill-opacity="0.75"></rect><rect x="804" y="274" width="4" height="5" fill="#FFCF8A" fill-opacity="0.95"></rect><rect x="813" y="274" width="4" height="5" fill="#FFCF8A" fill-opacity="0.75"></rect><rect x="831" y="274" width="4" height="5" fill="#FFCF8A" fill-opacity="0.55"></rect><rect x="840" y="274" width="4" height="5" fill="#FFCF8A" fill-opacity="0.95"></rect><rect x="867" y="274" width="4" height="5" fill="#FFCF8A" fill-opacity="0.55"></rect><rect x="885" y="274" width="4" height="5" fill="#FFCF8A" fill-opacity="0.75"></rect><rect x="894" y="274" width="4" height="5" fill="#FFCF8A" fill-opacity="0.55"></rect><rect x="795" y="285" width="4" height="5" fill="#FFCF8A" fill-opacity="0.55"></rect><rect x="840" y="285" width="4" height="5" fill="#FFCF8A" fill-opacity="0.95"></rect><rect x="876" y="285" width="4" height="5" fill="#FFCF8A" fill-opacity="0.55"></rect><rect x="894" y="285" width="4" height="5" fill="#FFCF8A" fill-opacity="0.55"></rect><rect x="795" y="296" width="4" height="5" fill="#FFCF8A" fill-opacity="0.55"></rect><rect x="822" y="296" width="4" height="5" fill="#FFCF8A" fill-opacity="0.55"></rect><rect x="831" y="296" width="4" height="5" fill="#FFCF8A" fill-opacity="0.55"></rect><rect x="840" y="296" width="4" height="5" fill="#FFCF8A" fill-opacity="0.75"></rect><rect x="858" y="296" width="4" height="5" fill="#FFCF8A" fill-opacity="0.75"></rect><rect x="876" y="296" width="4" height="5" fill="#FFCF8A" fill-opacity="0.95"></rect><rect x="885" y="296" width="4" height="5" fill="#FFCF8A" fill-opacity="0.55"></rect><rect x="795" y="307" width="4" height="5" fill="#FFCF8A" fill-opacity="0.55"></rect><rect x="804" y="307" width="4" height="5" fill="#FFCF8A" fill-opacity="0.75"></rect><rect x="831" y="307" width="4" height="5" fill="#FFCF8A" fill-opacity="0.75"></rect><rect x="849" y="307" width="4" height="5" fill="#FFCF8A" fill-opacity="0.75"></rect><rect x="876" y="307" width="4" height="5" fill="#FFCF8A" fill-opacity="0.55"></rect><rect x="795" y="318" width="4" height="5" fill="#FFCF8A" fill-opacity="0.75"></rect><rect x="804" y="318" width="4" height="5" fill="#FFCF8A" fill-opacity="0.75"></rect><rect x="813" y="318" width="4" height="5" fill="#FFCF8A" fill-opacity="0.95"></rect><rect x="822" y="318" width="4" height="5" fill="#FFCF8A" fill-opacity="0.75"></rect><rect x="858" y="318" width="4" height="5" fill="#FFCF8A" fill-opacity="0.55"></rect><rect x="876" y="318" width="4" height="5" fill="#FFCF8A" fill-opacity="0.95"></rect><rect x="894" y="318" width="4" height="5" fill="#FFCF8A" fill-opacity="0.75"></rect><rect x="813" y="329" width="4" height="5" fill="#FFCF8A" fill-opacity="0.95"></rect><rect x="831" y="329" width="4" height="5" fill="#FFCF8A" fill-opacity="0.55"></rect><rect x="840" y="329" width="4" height="5" fill="#FFCF8A" fill-opacity="0.95"></rect><rect x="876" y="329" width="4" height="5" fill="#FFCF8A" fill-opacity="0.55"></rect><rect x="894" y="329" width="4" height="5" fill="#FFCF8A" fill-opacity="0.55"></rect><rect x="795" y="340" width="4" height="5" fill="#FFCF8A" fill-opacity="0.75"></rect><rect x="804" y="340" width="4" height="5" fill="#FFCF8A" fill-opacity="0.75"></rect><rect x="840" y="340" width="4" height="5" fill="#FFCF8A" fill-opacity="0.75"></rect><rect x="849" y="340" width="4" height="5" fill="#FFCF8A" fill-opacity="0.55"></rect><rect x="858" y="340" width="4" height="5" fill="#FFCF8A" fill-opacity="0.75"></rect><rect x="867" y="340" width="4" height="5" fill="#FFCF8A" fill-opacity="0.75"></rect><rect x="885" y="340" width="4" height="5" fill="#FFCF8A" fill-opacity="0.95"></rect><rect x="795" y="351" width="4" height="5" fill="#FFCF8A" fill-opacity="0.55"></rect><rect x="804" y="351" width="4" height="5" fill="#FFCF8A" fill-opacity="0.95"></rect><rect x="813" y="351" width="4" height="5" fill="#FFCF8A" fill-opacity="0.55"></rect><rect x="822" y="351" width="4" height="5" fill="#FFCF8A" fill-opacity="0.95"></rect><rect x="831" y="351" width="4" height="5" fill="#FFCF8A" fill-opacity="0.95"></rect><rect x="858" y="351" width="4" height="5" fill="#FFCF8A" fill-opacity="0.95"></rect><rect x="795" y="362" width="4" height="5" fill="#FFCF8A" fill-opacity="0.75"></rect><rect x="822" y="362" width="4" height="5" fill="#FFCF8A" fill-opacity="0.95"></rect><rect x="867" y="362" width="4" height="5" fill="#FFCF8A" fill-opacity="0.95"></rect><rect x="795" y="373" width="4" height="5" fill="#FFCF8A" fill-opacity="0.95"></rect><rect x="840" y="373" width="4" height="5" fill="#FFCF8A" fill-opacity="0.55"></rect><rect x="849" y="373" width="4" height="5" fill="#FFCF8A" fill-opacity="0.95"></rect><rect x="858" y="373" width="4" height="5" fill="#FFCF8A" fill-opacity="0.55"></rect><rect x="867" y="373" width="4" height="5" fill="#FFCF8A" fill-opacity="0.75"></rect><rect x="804" y="384" width="4" height="5" fill="#FFCF8A" fill-opacity="0.55"></rect><rect x="813" y="384" width="4" height="5" fill="#FFCF8A" fill-opacity="0.55"></rect><rect x="858" y="384" width="4" height="5" fill="#FFCF8A" fill-opacity="0.95"></rect><rect x="867" y="384" width="4" height="5" fill="#FFCF8A" fill-opacity="0.55"></rect><rect x="885" y="384" width="4" height="5" fill="#FFCF8A" fill-opacity="0.55"></rect><rect x="894" y="384" width="4" height="5" fill="#FFCF8A" fill-opacity="0.95"></rect><path d="M790 266 H 900" stroke="#6EE7B7" stroke-opacity="0.4" stroke-width="2"></path><rect x="555" y="336" width="235" height="62" fill="#0F332F"></rect><path d="M630 336 L 672 314 L 714 336 Z" fill="#0F332F"></path><rect x="555" y="330" width="235" height="6" fill="#16403A"></rect><rect x="636" y="340" width="4" height="58" fill="#1C4A44"></rect><rect x="647" y="340" width="4" height="58" fill="#1C4A44"></rect><rect x="658" y="340" width="4" height="58" fill="#1C4A44"></rect><rect x="669" y="340" width="4" height="58" fill="#1C4A44"></rect><rect x="680" y="340" width="4" height="58" fill="#1C4A44"></rect><rect x="691" y="340" width="4" height="58" fill="#1C4A44"></rect><rect x="702" y="340" width="4" height="58" fill="#1C4A44"></rect><rect x="563" y="348" width="6" height="11" fill="#FFCF8A" fill-opacity="0.85"></rect><rect x="563" y="370" width="6" height="11" fill="#FFCF8A" fill-opacity="0.7"></rect><rect x="577" y="348" width="6" height="11" fill="#FFCF8A" fill-opacity="0.85"></rect><rect x="577" y="370" width="6" height="11" fill="#FFCF8A" fill-opacity="0.7"></rect><rect x="591" y="348" width="6" height="11" fill="#FFCF8A" fill-opacity="0.85"></rect><rect x="591" y="370" width="6" height="11" fill="#FFCF8A" fill-opacity="0.7"></rect><rect x="605" y="348" width="6" height="11" fill="#FFCF8A" fill-opacity="0.85"></rect><rect x="605" y="370" width="6" height="11" fill="#FFCF8A" fill-opacity="0.7"></rect><rect x="619" y="348" width="6" height="11" fill="#FFCF8A" fill-opacity="0.85"></rect><rect x="619" y="370" width="6" height="11" fill="#FFCF8A" fill-opacity="0.7"></rect><rect x="722" y="348" width="6" height="11" fill="#FFCF8A" fill-opacity="0.85"></rect><rect x="722" y="370" width="6" height="11" fill="#FFCF8A" fill-opacity="0.7"></rect><rect x="736" y="348" width="6" height="11" fill="#FFCF8A" fill-opacity="0.85"></rect><rect x="736" y="370" width="6" height="11" fill="#FFCF8A" fill-opacity="0.7"></rect><rect x="750" y="348" width="6" height="11" fill="#FFCF8A" fill-opacity="0.85"></rect><rect x="750" y="370" width="6" height="11" fill="#FFCF8A" fill-opacity="0.7"></rect><rect x="764" y="348" width="6" height="11" fill="#FFCF8A" fill-opacity="0.85"></rect><rect x="764" y="370" width="6" height="11" fill="#FFCF8A" fill-opacity="0.7"></rect><rect x="778" y="348" width="6" height="11" fill="#FFCF8A" fill-opacity="0.85"></rect><rect x="778" y="370" width="6" height="11" fill="#FFCF8A" fill-opacity="0.7"></rect><rect x="654" y="284" width="36" height="30" fill="#0F332F"></rect><rect x="658" y="290" width="3" height="22" fill="#1C4A44"></rect><rect x="666" y="290" width="3" height="22" fill="#1C4A44"></rect><rect x="674" y="290" width="3" height="22" fill="#1C4A44"></rect><rect x="682" y="290" width="3" height="22" fill="#1C4A44"></rect><path d="M650 285 Q 672 236 694 285 Z" fill="#2F7D6E"></path><path d="M658 272 Q 672 246 686 272" fill="none" stroke="#6FB8A4" stroke-width="1.5" stroke-opacity="0.7"></path><rect x="668" y="236" width="8" height="14" fill="#0F332F"></rect><circle cx="672" cy="231" r="4" fill="#0F332F"></circle><path d="M672 227 V 216" stroke="#0F332F" stroke-width="2"></path><circle cx="420" cy="389" r="11" fill="#0C2E2A"></circle><circle cx="436" cy="389" r="8" fill="#0C2E2A"></circle><circle cx="452" cy="389" r="10" fill="#0C2E2A"></circle><circle cx="468" cy="392" r="9" fill="#0C2E2A"></circle><circle cx="484" cy="392" r="9" fill="#0C2E2A"></circle><circle cx="500" cy="390" r="10" fill="#0C2E2A"></circle><circle cx="516" cy="387" r="10" fill="#0C2E2A"></circle><circle cx="532" cy="388" r="9" fill="#0C2E2A"></circle><circle cx="548" cy="392" r="11" fill="#0C2E2A"></circle><rect x="0" y="398" width="900" height="8" fill="#0B2C28"></rect><path d="M30 398 V 376" stroke="#0B2C28" stroke-width="2"></path><circle cx="30" cy="375" r="7" fill="#FFD9A0" fill-opacity="0.25"></circle><circle cx="30" cy="375" r="2.2" fill="#FFE7C2"></circle><path d="M88 398 V 376" stroke="#0B2C28" stroke-width="2"></path><circle cx="88" cy="375" r="7" fill="#FFD9A0" fill-opacity="0.25"></circle><circle cx="88" cy="375" r="2.2" fill="#FFE7C2"></circle><path d="M146 398 V 376" stroke="#0B2C28" stroke-width="2"></path><circle cx="146" cy="375" r="7" fill="#FFD9A0" fill-opacity="0.25"></circle><circle cx="146" cy="375" r="2.2" fill="#FFE7C2"></circle><path d="M204 398 V 376" stroke="#0B2C28" stroke-width="2"></path><circle cx="204" cy="375" r="7" fill="#FFD9A0" fill-opacity="0.25"></circle><circle cx="204" cy="375" r="2.2" fill="#FFE7C2"></circle><path d="M262 398 V 376" stroke="#0B2C28" stroke-width="2"></path><circle cx="262" cy="375" r="7" fill="#FFD9A0" fill-opacity="0.25"></circle><circle cx="262" cy="375" r="2.2" fill="#FFE7C2"></circle><path d="M320 398 V 376" stroke="#0B2C28" stroke-width="2"></path><circle cx="320" cy="375" r="7" fill="#FFD9A0" fill-opacity="0.25"></circle><circle cx="320" cy="375" r="2.2" fill="#FFE7C2"></circle><path d="M378 398 V 376" stroke="#0B2C28" stroke-width="2"></path><circle cx="378" cy="375" r="7" fill="#FFD9A0" fill-opacity="0.25"></circle><circle cx="378" cy="375" r="2.2" fill="#FFE7C2"></circle><path d="M436 398 V 376" stroke="#0B2C28" stroke-width="2"></path><circle cx="436" cy="375" r="7" fill="#FFD9A0" fill-opacity="0.25"></circle><circle cx="436" cy="375" r="2.2" fill="#FFE7C2"></circle><path d="M494 398 V 376" stroke="#0B2C28" stroke-width="2"></path><circle cx="494" cy="375" r="7" fill="#FFD9A0" fill-opacity="0.25"></circle><circle cx="494" cy="375" r="2.2" fill="#FFE7C2"></circle><path d="M552 398 V 376" stroke="#0B2C28" stroke-width="2"></path><circle cx="552" cy="375" r="7" fill="#FFD9A0" fill-opacity="0.25"></circle><circle cx="552" cy="375" r="2.2" fill="#FFE7C2"></circle><path d="M610 398 V 376" stroke="#0B2C28" stroke-width="2"></path><circle cx="610" cy="375" r="7" fill="#FFD9A0" fill-opacity="0.25"></circle><circle cx="610" cy="375" r="2.2" fill="#FFE7C2"></circle><path d="M668 398 V 376" stroke="#0B2C28" stroke-width="2"></path><circle cx="668" cy="375" r="7" fill="#FFD9A0" fill-opacity="0.25"></circle><circle cx="668" cy="375" r="2.2" fill="#FFE7C2"></circle><path d="M726 398 V 376" stroke="#0B2C28" stroke-width="2"></path><circle cx="726" cy="375" r="7" fill="#FFD9A0" fill-opacity="0.25"></circle><circle cx="726" cy="375" r="2.2" fill="#FFE7C2"></circle><path d="M784 398 V 376" stroke="#0B2C28" stroke-width="2"></path><circle cx="784" cy="375" r="7" fill="#FFD9A0" fill-opacity="0.25"></circle><circle cx="784" cy="375" r="2.2" fill="#FFE7C2"></circle><path d="M842 398 V 376" stroke="#0B2C28" stroke-width="2"></path><circle cx="842" cy="375" r="7" fill="#FFD9A0" fill-opacity="0.25"></circle><circle cx="842" cy="375" r="2.2" fill="#FFE7C2"></circle><rect x="0" y="406" width="900" height="154" fill="url(#swater)"></rect><rect x="470" y="406" width="260" height="150" fill="url(#sglint)" fill-opacity="0.35"></rect><path d="M688 507 h 19" stroke="#FFD9A0" stroke-opacity="0.20" stroke-width="1.6" stroke-linecap="round"></path><path d="M635 508 h 11" stroke="#FFD9A0" stroke-opacity="0.20" stroke-width="1.6" stroke-linecap="round"></path><path d="M467 478 h 9" stroke="#FFD9A0" stroke-opacity="0.34" stroke-width="1.6" stroke-linecap="round"></path><path d="M586 540 h 7" stroke="#FFD9A0" stroke-opacity="0.08" stroke-width="1.6" stroke-linecap="round"></path><path d="M879 413 h 23" stroke="#FFD9A0" stroke-opacity="0.63" stroke-width="1.6" stroke-linecap="round"></path><path d="M561 529 h 21" stroke="#FFD9A0" stroke-opacity="0.11" stroke-width="1.6" stroke-linecap="round"></path><path d="M510 440 h 35" stroke="#FFD9A0" stroke-opacity="0.51" stroke-width="1.6" stroke-linecap="round"></path><path d="M630 441 h 24" stroke="#FFD9A0" stroke-opacity="0.51" stroke-width="1.6" stroke-linecap="round"></path><path d="M692 548 h 5" stroke="#FFD9A0" stroke-opacity="0.08" stroke-width="1.6" stroke-linecap="round"></path><path d="M714 529 h 13" stroke="#FFD9A0" stroke-opacity="0.10" stroke-width="1.6" stroke-linecap="round"></path><path d="M742 444 h 33" stroke="#FFD9A0" stroke-opacity="0.49" stroke-width="1.6" stroke-linecap="round"></path><path d="M478 480 h 6" stroke="#FFD9A0" stroke-opacity="0.33" stroke-width="1.6" stroke-linecap="round"></path><path d="M740 475 h 13" stroke="#FFD9A0" stroke-opacity="0.35" stroke-width="1.6" stroke-linecap="round"></path><path d="M603 430 h 18" stroke="#FFD9A0" stroke-opacity="0.55" stroke-width="1.6" stroke-linecap="round"></path><path d="M507 410 h 33" stroke="#FFD9A0" stroke-opacity="0.64" stroke-width="1.6" stroke-linecap="round"></path><path d="M810 532 h 6" stroke="#FFD9A0" stroke-opacity="0.09" stroke-width="1.6" stroke-linecap="round"></path><path d="M770 541 h 8" stroke="#FFD9A0" stroke-opacity="0.08" stroke-width="1.6" stroke-linecap="round"></path><path d="M515 464 h 17" stroke="#FFD9A0" stroke-opacity="0.40" stroke-width="1.6" stroke-linecap="round"></path><path d="M760 462 h 18" stroke="#FFD9A0" stroke-opacity="0.41" stroke-width="1.6" stroke-linecap="round"></path><path d="M599 450 h 8" stroke="#FFD9A0" stroke-opacity="0.46" stroke-width="1.6" stroke-linecap="round"></path><path d="M783 451 h 33" stroke="#FFD9A0" stroke-opacity="0.46" stroke-width="1.6" stroke-linecap="round"></path><path d="M736 446 h 14" stroke="#FFD9A0" stroke-opacity="0.48" stroke-width="1.6" stroke-linecap="round"></path><path d="M522 464 h 32" stroke="#FFD9A0" stroke-opacity="0.40" stroke-width="1.6" stroke-linecap="round"></path><path d="M595 538 h 17" stroke="#FFD9A0" stroke-opacity="0.08" stroke-width="1.6" stroke-linecap="round"></path><path d="M419 546 h 12" stroke="#FFD9A0" stroke-opacity="0.08" stroke-width="1.6" stroke-linecap="round"></path><path d="M405 514 h 5" stroke="#FFD9A0" stroke-opacity="0.17" stroke-width="1.6" stroke-linecap="round"></path><path d="M585 519 h 17" stroke="#FFD9A0" stroke-opacity="0.15" stroke-width="1.6" stroke-linecap="round"></path><path d="M469 452 h 8" stroke="#FFD9A0" stroke-opacity="0.46" stroke-width="1.6" stroke-linecap="round"></path><path d="M656 478 h 14" stroke="#FFD9A0" stroke-opacity="0.33" stroke-width="1.6" stroke-linecap="round"></path><path d="M572 453 h 27" stroke="#FFD9A0" stroke-opacity="0.45" stroke-width="1.6" stroke-linecap="round"></path><path d="M692 505 h 11" stroke="#FFD9A0" stroke-opacity="0.21" stroke-width="1.6" stroke-linecap="round"></path><path d="M586 491 h 14" stroke="#FFD9A0" stroke-opacity="0.28" stroke-width="1.6" stroke-linecap="round"></path><path d="M635 440 h 34" stroke="#FFD9A0" stroke-opacity="0.51" stroke-width="1.6" stroke-linecap="round"></path><path d="M662 482 h 11" stroke="#FFD9A0" stroke-opacity="0.32" stroke-width="1.6" stroke-linecap="round"></path><path d="M935 475 h 9" stroke="#FFD9A0" stroke-opacity="0.35" stroke-width="1.6" stroke-linecap="round"></path><path d="M376 438 h 10" stroke="#FFD9A0" stroke-opacity="0.52" stroke-width="1.6" stroke-linecap="round"></path><path d="M571 445 h 14" stroke="#FFD9A0" stroke-opacity="0.49" stroke-width="1.6" stroke-linecap="round"></path><path d="M644 493 h 25" stroke="#FFD9A0" stroke-opacity="0.27" stroke-width="1.6" stroke-linecap="round"></path><path d="M600 470 h 19" stroke="#FFD9A0" stroke-opacity="0.37" stroke-width="1.6" stroke-linecap="round"></path><path d="M476 465 h 15" stroke="#FFD9A0" stroke-opacity="0.40" stroke-width="1.6" stroke-linecap="round"></path><path d="M689 550 h 5" stroke="#FFD9A0" stroke-opacity="0.08" stroke-width="1.6" stroke-linecap="round"></path><path d="M637 483 h 21" stroke="#FFD9A0" stroke-opacity="0.31" stroke-width="1.6" stroke-linecap="round"></path><path d="M655 449 h 14" stroke="#FFD9A0" stroke-opacity="0.47" stroke-width="1.6" stroke-linecap="round"></path><path d="M536 468 h 18" stroke="#FFD9A0" stroke-opacity="0.38" stroke-width="1.6" stroke-linecap="round"></path><path d="M824 537 h 4" stroke="#FFD9A0" stroke-opacity="0.08" stroke-width="1.6" stroke-linecap="round"></path><path d="M533 415 h 31" stroke="#FFD9A0" stroke-opacity="0.62" stroke-width="1.6" stroke-linecap="round"></path><path d="M708 495 h 5" stroke="#FFD9A0" stroke-opacity="0.26" stroke-width="1.6" stroke-linecap="round"></path><path d="M517 467 h 30" stroke="#FFD9A0" stroke-opacity="0.39" stroke-width="1.6" stroke-linecap="round"></path><path d="M708 551 h 7" stroke="#FFD9A0" stroke-opacity="0.08" stroke-width="1.6" stroke-linecap="round"></path><path d="M390 426 h 12" stroke="#FFD9A0" stroke-opacity="0.57" stroke-width="1.6" stroke-linecap="round"></path><path d="M420 547 h 15" stroke="#FFD9A0" stroke-opacity="0.08" stroke-width="1.6" stroke-linecap="round"></path><path d="M575 504 h 21" stroke="#FFD9A0" stroke-opacity="0.22" stroke-width="1.6" stroke-linecap="round"></path><path d="M453 416 h 34" stroke="#FFD9A0" stroke-opacity="0.62" stroke-width="1.6" stroke-linecap="round"></path><path d="M640 444 h 34" stroke="#FFD9A0" stroke-opacity="0.49" stroke-width="1.6" stroke-linecap="round"></path><path d="M538 429 h 15" stroke="#FFD9A0" stroke-opacity="0.56" stroke-width="1.6" stroke-linecap="round"></path><path d="M519 502 h 20" stroke="#FFD9A0" stroke-opacity="0.23" stroke-width="1.6" stroke-linecap="round"></path><path d="M635 486 h 19" stroke="#FFD9A0" stroke-opacity="0.30" stroke-width="1.6" stroke-linecap="round"></path><path d="M630 466 h 12" stroke="#FFD9A0" stroke-opacity="0.39" stroke-width="1.6" stroke-linecap="round"></path><path d="M586 454 h 19" stroke="#FFD9A0" stroke-opacity="0.45" stroke-width="1.6" stroke-linecap="round"></path><path d="M590 549 h 13" stroke="#FFD9A0" stroke-opacity="0.08" stroke-width="1.6" stroke-linecap="round"></path><path d="M702 444 h 14" stroke="#FFD9A0" stroke-opacity="0.49" stroke-width="1.6" stroke-linecap="round"></path><path d="M509 549 h 14" stroke="#FFD9A0" stroke-opacity="0.08" stroke-width="1.6" stroke-linecap="round"></path><path d="M591 482 h 22" stroke="#FFD9A0" stroke-opacity="0.32" stroke-width="1.6" stroke-linecap="round"></path><path d="M624 471 h 12" stroke="#FFD9A0" stroke-opacity="0.37" stroke-width="1.6" stroke-linecap="round"></path><path d="M464 443 h 8" stroke="#FFD9A0" stroke-opacity="0.50" stroke-width="1.6" stroke-linecap="round"></path><path d="M363 459 h 18" stroke="#FFD9A0" stroke-opacity="0.42" stroke-width="1.6" stroke-linecap="round"></path><path d="M567 526 h 18" stroke="#FFD9A0" stroke-opacity="0.12" stroke-width="1.6" stroke-linecap="round"></path><path d="M527 483 h 10" stroke="#FFD9A0" stroke-opacity="0.31" stroke-width="1.6" stroke-linecap="round"></path><path d="M702 529 h 8" stroke="#FFD9A0" stroke-opacity="0.10" stroke-width="1.6" stroke-linecap="round"></path><path d="M580 442 h 29" stroke="#FFD9A0" stroke-opacity="0.50" stroke-width="1.6" stroke-linecap="round"></path><path d="M518 482 h 10" stroke="#FFD9A0" stroke-opacity="0.32" stroke-width="1.6" stroke-linecap="round"></path><path d="M884 442 h 19" stroke="#FFD9A0" stroke-opacity="0.50" stroke-width="1.6" stroke-linecap="round"></path><path d="M452 431 h 19" stroke="#FFD9A0" stroke-opacity="0.55" stroke-width="1.6" stroke-linecap="round"></path><path d="M348 441 h 36" stroke="#FFD9A0" stroke-opacity="0.51" stroke-width="1.6" stroke-linecap="round"></path><path d="M625 419 h 20" stroke="#FFD9A0" stroke-opacity="0.61" stroke-width="1.6" stroke-linecap="round"></path><path d="M630 540 h 18" stroke="#FFD9A0" stroke-opacity="0.08" stroke-width="1.6" stroke-linecap="round"></path><path d="M555 545 h 9" stroke="#FFD9A0" stroke-opacity="0.08" stroke-width="1.6" stroke-linecap="round"></path><path d="M187 437 h 35" stroke="#FFD9A0" stroke-opacity="0.52" stroke-width="1.6" stroke-linecap="round"></path><path d="M599 506 h 13" stroke="#FFD9A0" stroke-opacity="0.21" stroke-width="1.6" stroke-linecap="round"></path><path d="M569 464 h 15" stroke="#FFD9A0" stroke-opacity="0.40" stroke-width="1.6" stroke-linecap="round"></path><path d="M604 451 h 16" stroke="#FFD9A0" stroke-opacity="0.46" stroke-width="1.6" stroke-linecap="round"></path><path d="M608 549 h 5" stroke="#FFD9A0" stroke-opacity="0.08" stroke-width="1.6" stroke-linecap="round"></path><path d="M680 462 h 28" stroke="#FFD9A0" stroke-opacity="0.41" stroke-width="1.6" stroke-linecap="round"></path><path d="M582 529 h 12" stroke="#FFD9A0" stroke-opacity="0.10" stroke-width="1.6" stroke-linecap="round"></path><path d="M729 464 h 31" stroke="#FFD9A0" stroke-opacity="0.40" stroke-width="1.6" stroke-linecap="round"></path><path d="M641 438 h 18" stroke="#FFD9A0" stroke-opacity="0.52" stroke-width="1.6" stroke-linecap="round"></path><path d="M624 470 h 27" stroke="#FFD9A0" stroke-opacity="0.37" stroke-width="1.6" stroke-linecap="round"></path><path d="M582 521 h 5" stroke="#FFD9A0" stroke-opacity="0.14" stroke-width="1.6" stroke-linecap="round"></path><path d="M642 543 h 8" stroke="#FFD9A0" stroke-opacity="0.08" stroke-width="1.6" stroke-linecap="round"></path><path d="M609 518 h 22" stroke="#FFD9A0" stroke-opacity="0.15" stroke-width="1.6" stroke-linecap="round"></path><path d="M30 410 V 458" stroke="#FFD9A0" stroke-opacity="0.22" stroke-width="3" stroke-dasharray="4 5"></path><path d="M88 410 V 458" stroke="#FFD9A0" stroke-opacity="0.22" stroke-width="3" stroke-dasharray="4 5"></path><path d="M146 410 V 458" stroke="#FFD9A0" stroke-opacity="0.22" stroke-width="3" stroke-dasharray="4 5"></path><path d="M204 410 V 458" stroke="#FFD9A0" stroke-opacity="0.22" stroke-width="3" stroke-dasharray="4 5"></path><path d="M262 410 V 458" stroke="#FFD9A0" stroke-opacity="0.22" stroke-width="3" stroke-dasharray="4 5"></path><path d="M320 410 V 458" stroke="#FFD9A0" stroke-opacity="0.22" stroke-width="3" stroke-dasharray="4 5"></path><path d="M378 410 V 458" stroke="#FFD9A0" stroke-opacity="0.22" stroke-width="3" stroke-dasharray="4 5"></path><path d="M436 410 V 458" stroke="#FFD9A0" stroke-opacity="0.22" stroke-width="3" stroke-dasharray="4 5"></path><path d="M494 410 V 458" stroke="#FFD9A0" stroke-opacity="0.22" stroke-width="3" stroke-dasharray="4 5"></path><path d="M552 410 V 458" stroke="#FFD9A0" stroke-opacity="0.22" stroke-width="3" stroke-dasharray="4 5"></path><path d="M610 410 V 458" stroke="#FFD9A0" stroke-opacity="0.22" stroke-width="3" stroke-dasharray="4 5"></path><path d="M668 410 V 458" stroke="#FFD9A0" stroke-opacity="0.22" stroke-width="3" stroke-dasharray="4 5"></path><path d="M726 410 V 458" stroke="#FFD9A0" stroke-opacity="0.22" stroke-width="3" stroke-dasharray="4 5"></path><path d="M784 410 V 458" stroke="#FFD9A0" stroke-opacity="0.22" stroke-width="3" stroke-dasharray="4 5"></path><path d="M842 410 V 458" stroke="#FFD9A0" stroke-opacity="0.22" stroke-width="3" stroke-dasharray="4 5"></path><path d="M305 492 h 39" stroke="#A7D8CB" stroke-opacity="0.12" stroke-width="1.2" stroke-linecap="round"></path><path d="M555 491 h 31" stroke="#A7D8CB" stroke-opacity="0.12" stroke-width="1.2" stroke-linecap="round"></path><path d="M285 492 h 10" stroke="#A7D8CB" stroke-opacity="0.12" stroke-width="1.2" stroke-linecap="round"></path><path d="M680 548 h 29" stroke="#A7D8CB" stroke-opacity="0.12" stroke-width="1.2" stroke-linecap="round"></path><path d="M849 470 h 17" stroke="#A7D8CB" stroke-opacity="0.12" stroke-width="1.2" stroke-linecap="round"></path><path d="M428 551 h 39" stroke="#A7D8CB" stroke-opacity="0.12" stroke-width="1.2" stroke-linecap="round"></path><path d="M348 490 h 23" stroke="#A7D8CB" stroke-opacity="0.12" stroke-width="1.2" stroke-linecap="round"></path><path d="M444 549 h 15" stroke="#A7D8CB" stroke-opacity="0.12" stroke-width="1.2" stroke-linecap="round"></path><path d="M722 532 h 35" stroke="#A7D8CB" stroke-opacity="0.12" stroke-width="1.2" stroke-linecap="round"></path><path d="M696 521 h 20" stroke="#A7D8CB" stroke-opacity="0.12" stroke-width="1.2" stroke-linecap="round"></path><path d="M288 499 h 33" stroke="#A7D8CB" stroke-opacity="0.12" stroke-width="1.2" stroke-linecap="round"></path><path d="M71 485 h 33" stroke="#A7D8CB" stroke-opacity="0.12" stroke-width="1.2" stroke-linecap="round"></path><path d="M223 474 h 11" stroke="#A7D8CB" stroke-opacity="0.12" stroke-width="1.2" stroke-linecap="round"></path><path d="M497 496 h 39" stroke="#A7D8CB" stroke-opacity="0.12" stroke-width="1.2" stroke-linecap="round"></path><path d="M795 554 h 18" stroke="#A7D8CB" stroke-opacity="0.12" stroke-width="1.2" stroke-linecap="round"></path><path d="M76 476 h 25" stroke="#A7D8CB" stroke-opacity="0.12" stroke-width="1.2" stroke-linecap="round"></path><path d="M639 507 h 17" stroke="#A7D8CB" stroke-opacity="0.12" stroke-width="1.2" stroke-linecap="round"></path><path d="M375 522 h 30" stroke="#A7D8CB" stroke-opacity="0.12" stroke-width="1.2" stroke-linecap="round"></path><path d="M673 542 h 30" stroke="#A7D8CB" stroke-opacity="0.12" stroke-width="1.2" stroke-linecap="round"></path><path d="M109 541 h 19" stroke="#A7D8CB" stroke-opacity="0.12" stroke-width="1.2" stroke-linecap="round"></path><path d="M510 500 h 32" stroke="#A7D8CB" stroke-opacity="0.12" stroke-width="1.2" stroke-linecap="round"></path><path d="M179 490 h 17" stroke="#A7D8CB" stroke-opacity="0.12" stroke-width="1.2" stroke-linecap="round"></path><path d="M138 545 h 27" stroke="#A7D8CB" stroke-opacity="0.12" stroke-width="1.2" stroke-linecap="round"></path><path d="M294 502 h 40" stroke="#A7D8CB" stroke-opacity="0.12" stroke-width="1.2" stroke-linecap="round"></path><path d="M457 488 h 34" stroke="#A7D8CB" stroke-opacity="0.12" stroke-width="1.2" stroke-linecap="round"></path><path d="M588 554 h 13" stroke="#A7D8CB" stroke-opacity="0.12" stroke-width="1.2" stroke-linecap="round"></path><path d="M427 539 h 35" stroke="#A7D8CB" stroke-opacity="0.12" stroke-width="1.2" stroke-linecap="round"></path><path d="M823 472 h 19" stroke="#A7D8CB" stroke-opacity="0.12" stroke-width="1.2" stroke-linecap="round"></path><path d="M107 484 h 39" stroke="#A7D8CB" stroke-opacity="0.12" stroke-width="1.2" stroke-linecap="round"></path><path d="M525 549 h 21" stroke="#A7D8CB" stroke-opacity="0.12" stroke-width="1.2" stroke-linecap="round"></path><path d="M780 507 h 18" stroke="#A7D8CB" stroke-opacity="0.12" stroke-width="1.2" stroke-linecap="round"></path><path d="M700 550 h 13" stroke="#A7D8CB" stroke-opacity="0.12" stroke-width="1.2" stroke-linecap="round"></path><path d="M537 522 h 17" stroke="#A7D8CB" stroke-opacity="0.12" stroke-width="1.2" stroke-linecap="round"></path><path d="M332 480 h 16" stroke="#A7D8CB" stroke-opacity="0.12" stroke-width="1.2" stroke-linecap="round"></path><path d="M229 520 h 30" stroke="#A7D8CB" stroke-opacity="0.12" stroke-width="1.2" stroke-linecap="round"></path><path d="M183 469 h 20" stroke="#A7D8CB" stroke-opacity="0.12" stroke-width="1.2" stroke-linecap="round"></path><path d="M610 484 h 19" stroke="#A7D8CB" stroke-opacity="0.12" stroke-width="1.2" stroke-linecap="round"></path><path d="M183 537 h 26" stroke="#A7D8CB" stroke-opacity="0.12" stroke-width="1.2" stroke-linecap="round"></path><path d="M57 477 h 22" stroke="#A7D8CB" stroke-opacity="0.12" stroke-width="1.2" stroke-linecap="round"></path><path d="M495 524 h 13" stroke="#A7D8CB" stroke-opacity="0.12" stroke-width="1.2" stroke-linecap="round"></path><path d="M10 400 L 440 400" stroke="#E8F5F1" stroke-width="5" stroke-linecap="round"></path><path d="M10 406 L 440 406" stroke="#CFE9E1" stroke-width="2" stroke-opacity="0.6"></path><path d="M307.7 362.5 L 280 400" stroke="#E8F5F1" stroke-width="1.1" stroke-opacity="0.8"></path><path d="M310.6 351.9 L 266 400" stroke="#E8F5F1" stroke-width="1.1" stroke-opacity="0.8"></path><path d="M313.9 341.4 L 252 400" stroke="#E8F5F1" stroke-width="1.1" stroke-opacity="0.8"></path><path d="M317.5 331.0 L 238 400" stroke="#E8F5F1" stroke-width="1.1" stroke-opacity="0.8"></path><path d="M321.5 320.8 L 224 400" stroke="#E8F5F1" stroke-width="1.1" stroke-opacity="0.8"></path><path d="M325.8 310.8 L 210 400" stroke="#E8F5F1" stroke-width="1.1" stroke-opacity="0.8"></path><path d="M330.4 301.0 L 196 400" stroke="#E8F5F1" stroke-width="1.1" stroke-opacity="0.8"></path><path d="M335.3 291.2 L 182 400" stroke="#E8F5F1" stroke-width="1.1" stroke-opacity="0.8"></path><path d="M340.6 281.7 L 168 400" stroke="#E8F5F1" stroke-width="1.1" stroke-opacity="0.8"></path><path d="M346.1 272.3 L 154 400" stroke="#E8F5F1" stroke-width="1.1" stroke-opacity="0.8"></path><path d="M352.1 263.1 L 140 400" stroke="#E8F5F1" stroke-width="1.1" stroke-opacity="0.8"></path><path d="M358.3 254.0 L 126 400" stroke="#E8F5F1" stroke-width="1.1" stroke-opacity="0.8"></path><path d="M364.9 245.1 L 112 400" stroke="#E8F5F1" stroke-width="1.1" stroke-opacity="0.8"></path><path d="M371.7 236.4 L 98 400" stroke="#E8F5F1" stroke-width="1.1" stroke-opacity="0.8"></path><path d="M379.0 227.8 L 84 400" stroke="#E8F5F1" stroke-width="1.1" stroke-opacity="0.8"></path><path d="M386.5 219.3 L 70 400" stroke="#E8F5F1" stroke-width="1.1" stroke-opacity="0.8"></path><path d="M394.4 211.1 L 56 400" stroke="#E8F5F1" stroke-width="1.1" stroke-opacity="0.8"></path><path d="M402.6 202.9 L 42 400" stroke="#E8F5F1" stroke-width="1.1" stroke-opacity="0.8"></path><path d="M317.5 331.2 L 352 400" stroke="#E8F5F1" stroke-width="1.1" stroke-opacity="0.65"></path><path d="M331.2 299.3 L 368 400" stroke="#E8F5F1" stroke-width="1.1" stroke-opacity="0.65"></path><path d="M348.2 269.0 L 384 400" stroke="#E8F5F1" stroke-width="1.1" stroke-opacity="0.65"></path><path d="M368.6 240.2 L 400 400" stroke="#E8F5F1" stroke-width="1.1" stroke-opacity="0.65"></path><path d="M392.3 213.2 L 416 400" stroke="#E8F5F1" stroke-width="1.1" stroke-opacity="0.65"></path><path d="M300 400 Q 318 280 410 196" stroke="#F4FBF8" stroke-width="7" fill="none" stroke-linecap="round"></path><path d="M300 410 Q 318 530 380 575" stroke="#E8F5F1" stroke-opacity="0.18" stroke-width="5" fill="none" stroke-linecap="round"></path><rect x="60" y="404" width="10" height="14" fill="#0B2C28"></rect><rect x="140" y="404" width="10" height="14" fill="#0B2C28"></rect><rect x="220" y="404" width="10" height="14" fill="#0B2C28"></rect><rect x="380" y="404" width="10" height="14" fill="#0B2C28"></rect></svg>